<?xml version="1.0" standalone="no"?>
<svg height="342.672" preserveAspectRatio="none" viewBox="0.000 0.000 382.505 342.672" width="382.505" x="0.000" xmlns="http://www.w3.org/2000/svg" xmlns:svg="http://www.w3.org/2000/svg" xmlns:xlink="http://www.w3.org/1999/xlink" y="0.000">
<svg width="382.505" height="342.672" xmlns="http://www.w3.org/2000/svg"><defs><clipPath id="LdQ0P3IdclipPath1"><path fill="#000000" stroke="none" d="M 0 0 L 382.505 0 L 382.505 342.672 L 0 342.672 Z"/></clipPath><clipPath id="LdQ0P3Idclip-0"><path fill="#000000" stroke="none" d="M 0 0 L 382.504 0 L 382.504 342.672 L 0 342.672 Z M 0 0"/></clipPath><clipPath id="LdQ0P3Idclip-1"><path fill="#000000" stroke="none" d="M 90 225 L 186 225 L 186 312.672 L 90 312.672 Z M 90 225"/></clipPath><clipPath id="LdQ0P3Idclip-2"><path fill="#000000" stroke="none" d="M 126 225 L 223 225 L 223 312.672 L 126 312.672 Z M 126 225"/></clipPath><clipPath id="LdQ0P3Idclip-3"><path fill="#000000" stroke="none" d="M 162 226 L 259 226 L 259 312.672 L 162 312.672 Z M 162 226"/></clipPath><clipPath id="LdQ0P3Idclip-4"><path fill="#000000" stroke="none" d="M 30 121 L 117 121 L 117 216 L 30 216 Z M 30 121"/></clipPath><clipPath id="LdQ0P3Idclip-5"><path fill="#000000" stroke="none" d="M 274 125 L 352.504 125 L 352.504 208 L 274 208 Z M 274 125"/></clipPath><clipPath id="LdQ0P3Idclip-6"><path fill="#000000" stroke="none" d="M 197 224 L 294 224 L 294 312.672 L 197 312.672 Z M 197 224"/></clipPath></defs><g transform="matrix(1 0 0 1 -195.39 -340.874)"><g transform="matrix(1 0 0 1 195.3904 340.8735)"><g clip-path="url(#LdQ0P3IdclipPath1)"><g clip-path="url(#LdQ0P3Idclip-0)"><path fill="#f6f5f4" stroke="none" d="M 0 0 L 382.504 0 L 382.504 342.672 L 0 342.672 Z M 0 0"/></g><g transform="matrix(1 0 0 1 138.1066 273.1217)"><path fill="none" stroke="#33d17a" stroke-miterlimit="10" d="M -18.087 -18.087 L -18.087 -18.087 M -18.087 -18.087 L -18.087 -18.087 M -16.81 -5.294 C -17.493 -7.391 -13.505 -11.083 -8.564 -16.684 M -18.306 -5.126 C -14.525 -9.579 -10.349 -14.704 -7.228 -17.278 M -19.743 4.828 C -10.251 -3.727 -4.743 -11.512 1.761 -17.587 M -17.165 6.253 C -13.196 -0.969 -6.068 -6.258 2.331 -18.422 M -17.962 19.941 C -10.646 9.558 -3.689 3.82 13.71 -17.251 M -17.95 17.839 C -4.064 2.933 6.647 -10.294 13.62 -18.188 M -7.306 18.437 C -1.196 10.683 5.382 2.324 21.64 -14.36 M -7.228 17.898 C 4.538 4.828 15.554 -8.743 20.718 -14.606 M 3.241 19.117 C 10.479 9.66 16.335 1.456 22.522 -0.876 M 2.448 19.007 C 7.886 13.335 13.597 7.742 20.729 -2.962 M 14.343 18.593 C 15.913 16.648 17.593 14.081 20.468 8.374 M 14.401 18.488 C 15.597 16.617 17.409 15.062 21.909 9.23"/></g><g clip-path="url(#LdQ0P3Idclip-1)"><g transform="matrix(1 0 0 1 138.1066 273.1217)"><path fill="none" stroke="#1d1f24" stroke-miterlimit="10" stroke-width="2" d="M -18.857 -16.735 C -9.29 -18.157 1.995 -20.075 18.921 -17.997 M -17.357 -18.559 C -9.275 -18.684 -0.704 -18.465 18.956 -18.067 M 18.386 -17.719 C 18.202 -5.266 18.405 6.671 16.21 18.39 M 18.534 -18.555 C 17.397 -4.61 18.464 7.949 18.706 18.839 M 18.554 19.562 C 10.901 18.667 0.839 16.203 -19.286 17.296 M 18.343 18.695 C 10.085 17.535 2.179 17.07 -17.708 17.519 M -17.552 17.558 C -17.048 9.003 -16.845 -2.934 -19.712 -16.997 M -18.083 17.738 C -17.11 8.933 -18.845 -0.188 -17.22 -18.969"/></g></g><g transform="matrix(1 0 0 1 174.7372 273.2135)"><path fill="none" stroke="#33d17a" stroke-miterlimit="10" d="M -18.042 -18.042 L -18.042 -18.042 M -18.042 -18.042 L -18.042 -18.042 M -17.507 -5.577 C -15.823 -7.671 -11.194 -11.104 -7.878 -16.561 M -17.401 -5.159 C -15.589 -9.839 -11.393 -12.284 -8.108 -18.026 M -16.655 6.122 C -11.432 -1.116 -6.432 -8.624 4.364 -16.995 M -18.518 5.376 C -9.432 -1.944 -2.503 -11.053 3.982 -18.315 M -16.706 19.806 C -8.491 4.591 2.185 -5.96 14.872 -16.6 M -18.526 18.509 C -5.386 3.654 6.864 -10.51 13.798 -17.167 M -9.093 19.494 C 2.083 8.439 11.665 -5.862 23.321 -13.858 M -7.018 18.689 C 0.626 11.466 7.993 1.829 21.712 -15.311 M 2.849 16.349 C 9.888 11.954 14.47 2.333 20.236 -3.471 M 3.9 18.107 C 10.443 11.009 17.532 1.669 22.63 -2.03 M 12.849 18.201 C 15.989 17.521 17.142 14.009 21.603 8.482 M 13.9 17.744 C 16.095 15.869 19.153 12.095 21.376 9.15"/></g><g clip-path="url(#LdQ0P3Idclip-2)"><g transform="matrix(1 0 0 1 174.7372 273.2135)"><path fill="none" stroke="#1d1f24" stroke-miterlimit="10" stroke-width="2" d="M -18.241 -19.655 C -8.05 -19.21 5.607 -18.678 16.271 -18.561 M -18.632 -17.784 C -9.081 -18.557 -1.608 -18.12 18.603 -18.542 M 18.568 -17.639 C 16.743 -6.893 17.837 2.326 19.634 18.115 M 17.056 -17.928 C 18.071 -7.694 17.318 2.681 17.286 17.915 M 18.368 18.068 C 9.626 19.396 -2.862 20.658 -19.538 16.978 M 18.407 18.97 C 6.095 17.283 -4.405 18.701 -17.198 17.997 M -16.983 17.161 C -17.097 5.802 -17.905 -5.745 -19.569 -18.264 M -17.214 17.529 C -18.261 4.576 -18.003 -8.589 -18.097 -17.405"/></g></g><g transform="matrix(1 0 0 1 211.103 273.2676)"><path fill="none" stroke="#33d17a" stroke-miterlimit="10" d="M -18.04 -18.041 L -18.04 -18.041 M -18.04 -18.041 L -18.04 -18.041 M -17.818 -5.143 C -14.251 -9.338 -12.08 -12.971 -7.427 -18.318 M -17.247 -5.697 C -16.021 -7.869 -12.955 -10.607 -6.775 -18.502 M -19.029 7.799 C -10.958 -2.518 -4.982 -8.928 3.049 -17.42 M -18.24 5.545 C -12.544 -0.502 -4.708 -9.326 3.393 -17.143 M -18.451 16.936 C -5.404 6.533 4.772 -4.596 13.795 -17.228 M -18.478 18.975 C -7.365 6.994 0.979 -2.764 14.217 -17.58 M -6.283 19.127 C 0.276 9.99 3.823 2.158 21.823 -16.506 M -7.857 17.752 C -0.693 10.104 6.6 1.92 22.338 -15.9 M 1.858 16.404 C 5.967 13.846 10.838 7.232 21.28 -1.494 M 4.03 18.908 C 8.518 13.088 13.995 6.678 21.315 -1.732 M 15.053 18.154 C 17.553 14.658 18.952 11.557 22.44 9.807 M 13.69 18.623 C 16.628 15.506 17.784 13.506 21.284 9.1"/></g><g clip-path="url(#LdQ0P3Idclip-3)"><g transform="matrix(1 0 0 1 211.103 273.2676)"><path fill="none" stroke="#1d1f24" stroke-miterlimit="10" stroke-width="2" d="M -20.001 -18.666 C -4.673 -17.74 10.135 -18.654 19.506 -16.182 M -18.275 -18.639 C -6.869 -17.506 3.936 -18.17 17.721 -17.42 M 17.717 -18.896 C 16.561 -4.228 18.792 10.096 16.67 17.412 M 18.503 -18.189 C 17.194 -6.986 17.338 3.35 18.893 17.795 M 17.737 17.432 C 7.483 18.803 -1.794 16.592 -19.931 16.928 M 18.753 17.799 C 5.686 17.822 -6.287 18.807 -17.689 17.471 M -16.49 18.846 C -19.49 5.018 -16.779 -9.631 -16.88 -18.607 M -18.021 18.619 C -17.009 6.791 -17.986 -4.025 -18.685 -17.33"/></g></g><g transform="matrix(1 0 0 1 68.4762 168.0656)"><path fill="none" stroke="#33d17a" stroke-miterlimit="10" d="M -17.476 -17.476 L -17.476 -17.476 M -17.476 -17.476 L -17.476 -17.476 M -16.304 -4.167 C -15.269 -8.038 -12.714 -11.226 -7.738 -18.831 M -16.765 -5.402 C -14.527 -9.058 -10.031 -13.523 -6.363 -18.136 M -18.847 8.196 C -8.066 -1.39 -2.66 -9.523 5.512 -16.64 M -17.281 7.352 C -10.48 -0.98 -2.886 -9.659 2.946 -16.527 M -16.757 18.673 C -8.172 4.884 4.403 -5.745 14.602 -17.015 M -16.023 17.528 C -6.644 6.985 3.395 -6.179 15.207 -17.366 M -6.672 17.173 C 3.161 8.7 10.075 -2.569 21.621 -12.616 M -6.632 17.927 C 4.848 6.61 14.735 -5.359 21.516 -14.523 M 4.254 17.591 C 11.528 12.708 13.016 8.145 22.942 -2.609 M 4.856 17.868 C 9.516 12.013 12.739 7.216 21.305 -2.323 M 15.555 19.138 C 15.567 16.735 17.461 15.442 21.235 9.86 M 15.145 18.388 C 16.911 15.731 18.985 14.419 21.668 10.684"/></g><g clip-path="url(#LdQ0P3Idclip-4)"><g transform="matrix(1 0 0 1 68.4762 168.0656)"><path fill="none" stroke="#1d1f24" stroke-miterlimit="10" stroke-width="2" d="M -18.195 -17.218 C -8.246 -17.542 1.825 -18.105 16.028 -17.069 M -17.113 -17.554 C -8.332 -18.245 0.618 -17.882 17.746 -18.292 M 16.133 -16.163 C 17.946 -7.073 17.043 6.798 16.047 15.845 M 16.856 -16.636 C 18.157 -9.944 18.172 0.13 18.071 17.997 M 19.364 18.751 C 5.875 19.497 -7.16 19.419 -19.332 18.766 M 17.883 17.884 C 8.446 17.454 0.321 17.302 -18.336 16.954 M -17.07 18.333 C -16.617 6.7 -18.89 -6.038 -15.507 -18.003 M -17.675 17.556 C -16.871 10.141 -17.289 2.766 -16.675 -17.503"/></g></g><g transform="matrix(1 0 0 1 -195.3904 -340.8735)"><path fill="none" stroke="#1d1f24" stroke-miterlimit="10" stroke-width="2" d="M 262.883 525.999 C 298.562 543.139 332.984 558.6 403.683 591.131 M 262.59 528.37 C 316.383 551.538 371.39 575.002 404.609 590.979"/></g><g transform="matrix(1 0 0 1 -195.3904 -340.8735)"><path fill="none" stroke="#1d1f24" stroke-miterlimit="10" stroke-width="2" d="M 390.437 591.444 C 393.648 592.682 396.629 592.053 403.887 590.838 M 390.238 593.057 C 395.664 592.12 401.488 590.846 404.512 590.733 M 404.57 589.022 C 403.867 587.538 400.137 585.924 397.449 579.702 M 404.726 590.639 C 401.93 587.092 401.269 584.127 397.125 579.35"/></g><g transform="matrix(0.9182 0 0 0.9182 280.9569 166.8393)"><path fill="none" stroke="#33d17a" stroke-miterlimit="10" stroke-width="0.918202" d="M -18.293 -18.293 L -18.293 -18.293 M -18.293 -18.293 L -18.293 -18.293 M -17.88 -7.802 C -16.034 -11.962 -10.41 -15.489 -8.666 -18.042 M -18.514 -7.814 C -15.987 -9.903 -12.831 -13.111 -8.93 -18.739 M -19.565 2.302 C -12.703 0.511 -11.414 -7.317 -0.702 -16.85 M -18.357 4.808 C -11.576 -3.445 -6.577 -10.35 1.004 -18.837 M -18.74 17.081 C -12.754 8.645 -7.679 0.239 9.053 -19.45 M -18.493 16.077 C -6.496 2.919 4.271 -11.197 10.823 -19.207 M -12.958 19.834 C -4.08 10.041 5.79 -1.446 20.191 -18.088 M -14.822 21.348 C -0.481 8.437 11.653 -7.091 20.612 -17.233 M -3.829 22.922 C 2.578 11.5 11.844 1.434 17.8 -5.645 M -4.054 22.11 C 2.936 12.104 10.01 3.536 19.587 -5.879 M 5.343 21.604 C 10.631 15.418 13.09 13.508 19.927 4.536 M 5.173 21.029 C 9.198 16.643 14.877 11.908 19.574 4.489 M 14.656 22.012 C 15.6 20.489 16.549 19.226 19.791 16.818 M 15.213 21.697 C 15.954 20.353 17.166 19.162 19.544 16.35"/></g><g transform="matrix(0.9182 0 0 0.9182 280.9569 166.8393)"><path fill="none" stroke="#1d1f24" stroke-miterlimit="10" stroke-width="1.836404" d="M -16.468 -17.097 C -4.356 -17.063 4.425 -16.957 17.719 -17.735 M -18.408 -18.744 C -5.262 -18.527 6.922 -17.165 17.74 -17.701 M 19.931 -16.489 C 16.996 -5.985 18.549 2.902 16.562 18.362 M 19.183 -18.403 C 17.106 -6.474 17.37 5.174 17.481 17.885 M 19.978 16.375 C 11.133 18.447 3.144 17.49 -17.829 18.251 M 17.323 18.417 C 9.815 17.941 0.855 17.851 -18.08 17.754 M -19.161 18.273 C -18.285 6.361 -18.157 -5.415 -20.148 -20.233 M -17.859 18.638 C -18.485 5.004 -19.195 -8.533 -19.05 -18.403"/></g><g transform="matrix(0.9131 0 0 0.9131 315.3305 166.7588)"><path fill="none" stroke="#a41d2d" stroke-miterlimit="10" stroke-width="0.913129" d="M -17.807 -17.81 L -17.807 -17.81 M -17.807 -17.81 L -17.807 -17.81 M -16.485 -5.267 C -16.357 -8.386 -12.237 -11.029 -9.174 -17.639 M -18.081 -6.157 C -15.198 -10.52 -11.027 -13.66 -8.22 -17.836 M -18.646 4.08 C -10.89 -6.003 -3.759 -14.875 2.35 -16.193 M -17.906 3.926 C -12.396 -2.123 -6.257 -9.682 0.99 -17.211 M -19.437 16.216 C -11.827 7.909 -3.031 -3.552 10.915 -19.406 M -18.795 15.155 C -6.633 3.657 3.24 -10.08 10.564 -17.938 M -12.242 22.308 C -1.166 6.506 9.918 -5.254 17.883 -17.185 M -14.334 20.73 C -4.409 10.963 3.711 2.643 20.236 -15.756 M -4.785 23.33 C 3.304 14.946 12.206 5.671 21.357 -4.604 M -4.31 21.067 C 2.423 13.008 9.122 5.641 19.74 -5.387 M 5.447 21.324 C 11.073 16.486 16.707 9.158 18.782 7.027 M 6.816 21.038 C 11.184 16.041 15.081 11.066 20.446 6.005"/></g><g clip-path="url(#LdQ0P3Idclip-5)"><g transform="matrix(0.9131 0 0 0.9131 315.3305 166.7588)"><path fill="none" stroke="#1d1f24" stroke-miterlimit="10" stroke-width="1.826257" d="M -18.175 -19.085 C -11.322 -17.356 -2.847 -19.256 18.88 -18.755 M -18.32 -18.285 C -9.611 -17.262 0.596 -17.194 17.117 -17.981 M 17.34 -18.477 C 18.936 -9.806 16.869 -2.735 15.997 19.211 M 17.028 -17.018 C 18.503 -7.697 18.529 4.948 18.696 18.082 M 17.194 16.156 C 4.395 18.852 -8.007 15.896 -18.316 18.783 M 18.05 16.854 C 6.662 18.903 -6.227 19.1 -17.384 17.949 M -18.74 17.401 C -17.931 7.391 -19.548 -1.331 -16.22 -19.324 M -17.863 17.949 C -17.358 2.993 -19.031 -10.439 -18.637 -17.519"/></g></g><g transform="matrix(1 0 0 1 101.9763 167.883)"><path fill="none" stroke="#9a9996" stroke-miterlimit="10" d="M -17.617 -17.617 L -17.617 -17.617 M -17.617 -17.617 L -17.617 -17.617 M -17.605 -6.594 C -16.289 -9.242 -15.062 -8.82 -6.324 -18.195 M -18.402 -6.07 C -15.597 -9.051 -13.086 -11.305 -7.816 -17.961 M -17.711 7.156 C -9.172 -0.18 -5.886 -6.367 2.453 -17.235 M -17.699 6.992 C -12.179 1.469 -6.336 -4.317 3.41 -16.906 M -15.187 18.875 C -5.828 6.676 7.586 -8.055 15.27 -16.004 M -17.816 17.707 C -8 8.191 3.684 -4.649 14.313 -18.266 M -5.07 19.859 C 2.551 10.406 7.871 -0.024 22.262 -14.399 M -6.117 18.926 C 0.824 8.453 8.938 1.172 22.449 -14.953 M 6.074 19.66 C 10.75 9.816 14.625 4.75 21.903 -1.86 M 4.864 18.367 C 9.242 13.035 13.946 7.594 21.711 -2.625 M 14.926 18.359 C 17.567 15.394 19.289 13.125 22.258 10.734 M 14.489 18.465 C 16.215 16.683 17.746 13.918 21.477 10.047"/></g><g transform="matrix(1 0 0 1 101.9763 167.883)"><path fill="none" stroke="#1d1f24" stroke-miterlimit="10" stroke-width="2" d="M -16.871 -19.047 C -3.371 -16.59 8.364 -16.508 16.356 -16.965 M -18.371 -17.969 C -5.859 -17.777 4.375 -16.938 18.59 -17.863 M 16.008 -18.176 C 17.571 -10.11 17.719 -0.797 16.676 19.133 M 18.453 -18.156 C 17.961 -5.832 17.524 6.644 18.508 17.285 M 18.164 16.41 C 4.121 17.676 -6.426 19.207 -17.605 18.539 M 17.637 18.027 C 8.801 17.543 0.586 18.293 -17.027 18.258 M -16.808 19.035 C -16.312 7.918 -16.902 0.437 -18.398 -16.27 M -16.719 18.512 C -18.054 10.406 -18.316 1.871 -17.457 -17.18"/></g><g transform="matrix(1.0107 0 0 1.0263 246.3421 273.7006)"><path fill="none" stroke="#9a9996" stroke-miterlimit="10" stroke-width="1.018463" d="M -17.492 -17.494 L -17.492 -17.494 M -17.492 -17.494 L -17.492 -17.494 M -18.953 -5.669 C -13.557 -9.064 -11.114 -11.872 -7.551 -16.116 M -16.873 -5.65 C -14.04 -8.706 -11.168 -13.235 -6.499 -17.323 M -18.11 6.218 C -12.625 -0.222 -6.936 -4.104 3.797 -18.091 M -18.311 7.634 C -11.953 0.17 -6.055 -6.152 3.673 -17.425 M -16.131 19.242 C -4.965 8.128 5.563 -5.212 15.551 -16.219 M -16.591 18.869 C -5.92 5.552 4.164 -5.901 13.943 -16.634 M -6.086 18.854 C 2.611 10.187 8.59 5.198 20.854 -14.171 M -6.121 17.723 C 1.594 9.693 9.166 0.554 22.624 -13.033 M 5.88 16.551 C 12.436 12.323 17.889 1.601 23.381 -0.862 M 4.69 19.231 C 11.23 11.599 17.638 3.782 22.485 -1.939 M 15.682 18.888 C 18.863 15.893 20.552 13.898 21.279 11.535 M 15.686 18.884 C 18.276 16.296 19.837 14.949 22.504 11.162"/></g><g clip-path="url(#LdQ0P3Idclip-6)"><g transform="matrix(1.0107 0 0 1.0263 246.3421 273.7006)"><path fill="none" stroke="#1d1f24" stroke-miterlimit="10" stroke-width="2.036925" d="M -16.197 -18.662 C -8.03 -16.66 7.005 -17.33 15.551 -16.763 M -17.905 -17.616 C -5.51 -17.779 7.767 -17.947 17.066 -17.642 M 17.561 -16.542 C 15.613 -10.202 15.404 -0.93 16.78 19.486 M 18.082 -16.737 C 18.569 -3.21 18.314 9.814 17.611 16.559 M 15.852 16.627 C 5.44 17.548 -5.939 18.37 -16.576 16.171 M 16.819 17.385 C 5.656 17.354 -5.92 17.065 -16.966 18.123 M -16.185 16.772 C -19.753 9.095 -18.071 0.44 -19.447 -16.154 M -16.703 17.525 C -16.981 8.163 -17.72 0.398 -17.975 -17.467"/></g></g><g transform="matrix(1 0 0 1 263.2305 280.6143)"><path fill="none" stroke="#1d1f24" stroke-miterlimit="10" stroke-width="2" d="M -0 -0.001 L -0 -0.001 M -0 -0.001 L -0 -0.001 M -0 -0.001 L -0 -0.001 M -0 -0.001 L -0 -0.001 M -0 -0.001 L -0 -0.001 M -0 -0.001 L -0 -0.001 M -0 -0.001 L -0 -0.001 M -0 -0.001 L -0 -0.001"/></g><g transform="matrix(1 0 0 1 -195.3904 -340.8735)"><path fill="none" stroke="#1d1f24" stroke-miterlimit="10" stroke-width="2" d="M 336.687 528.338 C 334.621 550.499 331.722 576.741 331.476 591.417 M 334.027 527.596 C 332.519 550.545 331.609 573.303 331 592.694"/></g><g transform="matrix(1 0 0 1 -195.3904 -340.8735)"><path fill="none" stroke="#1d1f24" stroke-miterlimit="10" stroke-width="2" d="M 325.785 581.87 C 328.086 584.639 329.586 590.198 331.492 592.022 M 323.976 581.37 C 326.515 585.456 329.097 589.592 331.168 592.885 M 331.465 593.795 C 332.992 591.284 335.383 587.424 339.113 582.831 M 330.926 592.678 C 333.461 590.362 334.961 588.127 339.965 582.116"/></g><g transform="matrix(1 0 0 1 -195.3904 -340.8735)"><path fill="none" stroke="#1d1f24" stroke-miterlimit="10" stroke-width="2" d="M 477.66 527.624 C 452.597 542.69 428.801 557.51 367.769 590.702 M 475.601 527.217 C 447.152 544.557 418.168 562.331 370.426 591.913"/></g><g transform="matrix(1 0 0 1 -195.3904 -340.8735)"><path fill="none" stroke="#1d1f24" stroke-miterlimit="10" stroke-width="2" d="M 376.426 579.495 C 373.851 582.518 371.66 586.022 368.379 591.042 M 375.023 579.221 C 373.937 582.909 373.043 586.151 370.183 591.87 M 370.644 591.385 C 374.367 591.268 377.773 593.03 382.793 593.1 M 370.347 591.96 C 373.918 592.674 378.176 591.795 383.625 592.022"/></g><g transform="matrix(0.9155 0 0 0.9155 137.1372 168.1595)"><path fill="none" stroke="#33d17a" stroke-miterlimit="10" stroke-width="0.9155" d="M -18.126 -18.125 L -18.126 -18.125 M -18.126 -18.125 L -18.126 -18.125 M -17.977 -5.934 C -16.564 -8.721 -11.973 -11.946 -8.846 -18.189 M -17.989 -7.163 C -15.242 -10.436 -12.4 -12.889 -8.376 -18.666 M -18.651 4.933 C -15.276 -1.911 -10.992 -4.219 -0.47 -19.046 M -18.476 4.758 C -12.741 -3.417 -7.566 -8.733 0.456 -18.176 M -17.272 13.475 C -9.818 5.868 -1.942 -2.602 12.54 -17.118 M -17.2 15.028 C -9.848 4.733 -0.146 -5.956 11.349 -17.898 M -14.947 19.829 C -4.195 9.827 6.489 0.594 18.897 -15.722 M -14.013 21.258 C -4.609 11.551 4.1 2.002 20.275 -16.934 M -6.153 21.817 C 0.307 13.202 6.43 6.619 18.027 -4.125 M -4.66 21.586 C 5.845 11.854 13.555 0.12 19.277 -6.165 M 4.279 20.763 C 9.425 18.745 12.689 15.378 21.38 4.033 M 4.753 21.04 C 9.297 17.738 12.087 13.868 19.034 4.583"/></g><g transform="matrix(0.9155 0 0 0.9155 137.1372 168.1595)"><path fill="none" stroke="#1d1f24" stroke-miterlimit="10" stroke-width="1.831" d="M -18.604 -18.684 C -8.901 -18.189 0.452 -19.49 19.217 -18.061 M -18.092 -18.752 C -9.631 -18.739 -1.11 -17.45 17.139 -18.436 M 19.507 -17.48 C 16.205 -6.754 18.897 3.218 18.449 18.361 M 19.008 -18.905 C 18.249 -8.644 17.536 1.469 17.877 18.143 M 17.481 20.085 C 9.6 16.641 2.777 18.216 -19.316 17.2 M 17.967 18.126 C 8.333 18.536 -0.171 19.227 -18.527 17.149 M -17.575 18.348 C -18.164 8.705 -19.513 1.439 -16.982 -19.861 M -18.395 17.597 C -19.218 4.566 -17.708 -8.337 -18.698 -17.399"/></g><g><g transform="matrix(1 0 0 1 116.1836 93)"><g><path fill="#1d1f24" stroke="none" d="M 0.766 -8.188 C 0.766 -6.438 2.094 -4.766 3.438 -3.781 C 3.703 -3.5 5.594 -2.594 6.094 -2.453 C 10.781 -0.344 14.703 -0.063 19.734 -0.203 C 23.734 -0.141 27.438 -0.063 31.297 -1.609 C 34.859 -2.938 38.219 -5.953 39.766 -9.516 C 40.109 -12.047 39.484 -14.344 38.438 -16.594 C 34.656 -21.281 29.469 -23.797 23.797 -25.906 C 20.578 -27.516 16.031 -28.766 14.063 -31.641 L 14.063 -32.063 C 15.953 -33.25 17.922 -33.813 20.719 -34.859 C 24.016 -36.406 28.984 -38.297 32.203 -40.047 C 33.188 -40.313 34.859 -41.156 35.766 -40.953 C 35.906 -40.953 37.234 -40.047 37.516 -40.047 C 38.922 -39.625 40.313 -40.875 41.094 -41.859 C 40.953 -43.328 41.578 -44.797 40.188 -45.844 L 37.453 -47.188 L 33.391 -46.766 C 31.359 -46.406 25.906 -44.031 23.594 -43.188 C 18.969 -41.516 14.063 -39.969 10.5 -37.375 C 10.156 -37.375 7.625 -36.547 7.422 -36.547 C 6.234 -35.984 4.906 -35.422 4.484 -34.156 C 4.266 -32.828 3.922 -30.656 4.766 -29.469 C 7.141 -26.734 7.844 -26.109 10.984 -24.563 C 16.516 -21.844 21.563 -19.594 27.375 -17.5 C 28.984 -15.75 32.344 -14.563 33.109 -12.188 C 33.813 -10.5 32.125 -9.172 30.875 -8.188 C 26.109 -6.516 21.141 -6.797 16.234 -6.859 C 13.656 -7.063 10.984 -7.703 8.75 -9.094 C 8.609 -9.234 7.766 -10.156 7.281 -10.5 C 6.156 -11.547 4.406 -11.969 3.016 -11.688 C 1.547 -11.484 0.625 -9.656 0.766 -8.188 Z M 0.766 -8.188"/></g></g><g transform="matrix(1 0 0 1 159.1836 93)"><g><path fill="#1d1f24" stroke="none" d="M 7.203 -19.953 C 3.984 -14.906 0.703 -9.234 2.313 -3.078 C 3.984 0.844 6.516 4.203 10.297 6.156 C 14.063 8.469 17.922 9.516 22.125 9.313 C 25.969 9.453 29.75 8.047 33.531 7.063 C 35.766 6.938 38.016 5.953 39.766 3.984 L 39.766 1.406 C 39.625 0.484 38.984 0 38.359 0.141 L 37.875 0.141 C 34.938 0.344 33.813 0.422 31.359 1.406 C 27.938 2.313 25.063 3.563 21.703 3.156 C 15.547 3.563 9.094 -1.469 8.047 -7.484 C 7.984 -9.234 9.313 -11.344 10.297 -12.813 C 10.438 -12.875 10.641 -12.875 10.781 -12.813 C 10.922 -12.813 12.391 -11.625 12.531 -11.484 C 14.984 -10.016 17.781 -8.813 20.578 -8.813 C 21.563 -8.813 22.609 -8.953 23.594 -9.313 C 28.484 -9.656 33.391 -14.422 33.313 -19.453 C 33.047 -25.406 27.797 -28.703 22.328 -28.844 C 20.859 -28.906 19.875 -28.563 18.266 -28.344 C 13.656 -26.875 10.078 -23.656 7.203 -19.953 Z M 12.672 -16.594 C 12.672 -16.797 12.875 -17.078 12.953 -17.297 C 15.328 -19.672 18.266 -22.547 21.844 -22.609 C 23.938 -21.766 27.438 -21.422 26.672 -18.625 C 25.766 -17.078 23.656 -16.031 21.844 -15.469 C 19.531 -15.469 17.359 -15.266 15.188 -16.375 C 14.844 -16.453 13.016 -16.594 12.672 -16.594 Z M 12.672 -16.594"/></g></g><g transform="matrix(1 0 0 1 197.1836 93)"><g><path fill="#1d1f24" stroke="none" d="M 19.313 -19.047 C 19.531 -19.188 19.813 -19.109 20.016 -19.109 C 20.438 -18.969 21.484 -17.844 21.984 -17.297 C 22.688 -16.172 22.75 -14.063 23.313 -12.875 C 23.594 -10.016 24.297 -6.656 25.063 -3.984 C 25.828 -3.016 26.531 -1.688 27.297 -0.484 C 27.438 0.063 27.797 0.203 28.141 0.203 C 28.844 0.203 29.75 -0.344 30.375 -0.484 C 31.156 -1.047 31.359 -2.313 31.297 -3.156 C 31.297 -3.359 30.375 -5.453 30.375 -5.813 L 29.047 -11.547 C 29.047 -15.547 28.344 -19.109 26.875 -22.547 C 25.766 -24.359 23.594 -28.203 21.344 -27.516 C 19.813 -27.438 18.484 -27.797 17.438 -26.453 C 15.266 -24.781 14.625 -23.172 13.094 -21.281 C 12.531 -20.578 9.375 -17.438 8.688 -16.875 C 8.688 -17.219 8.75 -18.344 8.75 -19.453 C 8.75 -21.766 8.75 -22.469 8.266 -24.359 C 7.563 -25.406 6.375 -25.766 5.109 -25.766 C 3.641 -25.828 2.516 -24.844 2.516 -23.313 L 2.516 -23.031 C 2.516 -22.891 2.516 -22.688 2.594 -22.406 L 2.875 -20.578 C 2.938 -20.297 2.938 -20.094 2.938 -19.953 C 2.516 -16.375 2.234 -9.797 1.609 -6.656 C 1.609 -6.234 1.469 -4.969 1.609 -4.484 L 4.688 -1.328 C 5.672 -1.125 6.375 -1.328 6.938 -2.234 C 7.844 -4.344 9.797 -7.281 10.922 -9.313 C 13.156 -12.734 16.031 -16.234 19.313 -19.047 Z M 19.313 -19.047"/></g></g><g transform="matrix(1 0 0 1 230.1836 93)"><g><path fill="#1d1f24" stroke="none" d="M 11.766 -13.156 C 11.766 -13.094 11.766 -13.094 11.828 -13.016 C 12.047 -10.781 12.453 -8.547 12.531 -6.375 C 12.047 -2.938 14.344 -0.484 15.469 1.891 C 16.656 3.438 18.406 3.922 20.234 3.984 C 21.484 3.984 22.891 3.156 24.016 2.875 C 31.844 0.281 32.266 -0.906 34.578 -5.594 C 35.422 -6.859 35.422 -8.406 35.625 -9.875 C 35.141 -10.922 35 -13.516 32.906 -13.156 C 31.156 -13.234 30.594 -12.391 30.094 -11.063 C 29.891 -10.641 29.406 -8.188 29.469 -7.703 C 27.234 -3.922 26.672 -4.125 23.516 -3.359 C 22.891 -3.219 22.406 -3.156 21.906 -3.156 C 20.797 -3.219 20.156 -3.781 19.391 -4.484 C 17.844 -8.188 18.125 -18.266 18.125 -19.734 C 17.359 -22.891 17.844 -25.484 17.844 -28.563 L 18.203 -29.047 C 19.391 -29.469 20.938 -29.891 22.328 -29.953 L 22.469 -30.031 C 26.188 -30.797 29.609 -31.781 33.25 -32.063 C 33.953 -32.203 34.438 -32.766 35.063 -33.391 C 35.484 -35.141 34.859 -36.609 32.828 -36.891 L 29.609 -37.031 C 25.547 -37.516 23.375 -36.469 19.313 -36.125 C 19.109 -36.188 18.203 -36.469 17.984 -36.547 C 17.078 -37.453 17.641 -42.484 17.156 -43.609 C 17.016 -44.938 16.031 -46.484 15.047 -47.25 C 13.375 -47.594 12.25 -47.313 11.063 -45.984 L 10.922 -35 L 10.438 -34.438 C 6.656 -33.734 3.641 -33.109 -0.422 -33.047 L -2.734 -31.016 C -3.359 -30.172 -3.359 -28.141 -3.016 -27.156 C -2.031 -26.313 -1.266 -25.063 -0.141 -24.641 C 1.406 -24.438 2.234 -25.406 3.703 -25.484 C 5.953 -26.594 7.844 -26.813 10.781 -27.016 C 11.266 -26.672 11.406 -25.688 11.547 -25.125 C 11.625 -24.297 11.906 -19.953 11.906 -18.906 Z M 11.766 -13.156"/></g></g></g><g transform="matrix(1 0 0 1 173.7117 167.7837)"><path fill="none" stroke="#9a9996" stroke-miterlimit="10" d="M -18.036 -18.034 L -18.036 -18.034 M -18.036 -18.034 L -18.036 -18.034 M -18.391 -5.639 C -14.68 -8.768 -11.591 -12.635 -6.876 -16.651 M -17.423 -5.147 C -14.782 -10.417 -11.161 -12.979 -6.993 -17.639 M -16.86 6.349 C -14.024 -0.612 -6.048 -8.448 1.566 -16.252 M -18.712 5.915 C -12.106 -0.971 -6.677 -7.077 3.898 -17.233 M -18.598 17.665 C -7.63 9.58 0.722 -4.081 15.558 -18.112 M -18.579 18.263 C -6.763 5.333 2.581 -8.678 14.144 -18.768 M -7.634 19.853 C 2.589 8.724 12.878 -2.577 20.058 -14.67 M -6.407 17.775 C -0.665 9.123 8.175 0.65 21.28 -15.077 M 5.085 17.115 C 7.8 11.63 13.644 5.576 23.163 -0.96 M 2.429 18.63 C 7.675 14.408 11.691 9.208 21.82 -1.764 M 14.48 19.04 C 15.972 16.982 17.398 13.048 22.218 9.498 M 14.093 18.751 C 16.855 15.029 19.202 12.955 21.327 9.04"/></g><g transform="matrix(1 0 0 1 173.7117 167.7837)"><path fill="none" stroke="#1d1f24" stroke-miterlimit="10" stroke-width="2" d="M -19.591 -18.46 C -8.001 -17.76 1.808 -18.823 19.663 -16.967 M -18.032 -18.772 C -8.716 -17.706 2.206 -19.096 18.933 -18.616 M 19.515 -19.35 C 18.718 -11.659 16.472 -0.522 17.019 19.544 M 17.288 -17.292 C 18.862 -4.518 18.78 6.419 17.484 17.255 M 18.105 18.271 C 8.894 18.056 1.956 18.673 -16.161 18.095 M 18.234 17.447 C 9.917 18.142 3.195 17.693 -18.751 18.123 M -17.794 17.076 C -17.927 12.06 -19.325 4.037 -16.641 -17.276 M -17.309 17.341 C -17.591 9.888 -18.934 -0.018 -18.598 -17.678"/></g><g transform="matrix(0.9395 0 0 0.9395 245.2332 166.6856)"><path fill="none" stroke="#9a9996" stroke-miterlimit="10" stroke-width="0.939503" d="M -18.235 -18.234 L -18.235 -18.234 M -18.235 -18.234 L -18.235 -18.234 M -18.863 -7.224 C -16.127 -10.447 -11.329 -11.428 -8.485 -17.59 M -18.484 -6.696 C -15.403 -10.821 -11.811 -14.592 -8.389 -17.656 M -18.156 5.91 C -13.948 -2.813 -10.007 -7.474 -0.065 -16.425 M -19.133 5.224 C -12.834 -1 -9.154 -7.923 1.826 -19.145 M -18.746 17.103 C -11.013 8.209 -0.589 -2.547 12.616 -17.752 M -18.58 15.357 C -7.366 2.272 3.789 -9.96 11.705 -17.602 M -12.834 21.747 C -6.069 12.945 0.671 4.613 22.004 -15.095 M -13.208 22.995 C -3.092 10.517 4.966 0.056 19.406 -17.54 M -4.851 21.369 C 4.155 14.089 10.554 6.563 20.316 -4.684 M -2.888 22.762 C 4.034 13.656 11.901 3.457 21.019 -6.027 M 6.799 22.105 C 11.061 18.068 13.423 11.71 19.896 4.867 M 5.843 22.121 C 8.525 19.46 12.994 15.527 21.085 5.582"/></g><g transform="matrix(0.9395 0 0 0.9395 245.2332 166.6856)"><path fill="none" stroke="#1d1f24" stroke-miterlimit="10" stroke-width="1.879006" d="M 18.807 -17.548 C 9.323 -16.558 3.041 -18.355 -18.376 -18.617 M 18.819 -17.465 C 7.639 -17.087 -0.236 -17.511 -17.877 -18.159 M -18.559 -17.993 C -17.341 -9.062 -19.898 -4.796 -16.967 18.92 M -18.75 -18.854 C -18.958 -4.443 -17.661 8.255 -18.156 18.833 M -17.981 18.749 C -7.982 19.893 0.367 18.866 19.293 16.637 M -17.27 18.492 C -8.289 19.56 2.878 18.076 19.031 17.427 M 16.844 17.594 C 18.774 4.106 19.846 -6.808 17.489 -17.914 M 18.919 17.556 C 17.797 6.925 18.715 -4.518 18.092 -18.546"/></g><g transform="matrix(1.0107 0 0 1.0263 209.6701 167.4821)"><path fill="none" stroke="#9a9996" stroke-miterlimit="10" stroke-width="1.018463" d="M -17.491 -17.49 L -17.491 -17.49 M -17.491 -17.49 L -17.491 -17.49 M -18.952 -5.669 C -13.557 -9.064 -11.114 -11.873 -7.551 -16.116 M -16.873 -5.65 C -14.04 -8.706 -11.168 -13.235 -6.499 -17.323 M -18.11 6.217 C -12.625 -0.222 -6.936 -4.105 3.797 -18.092 M -18.311 7.633 C -11.953 0.17 -6.055 -6.152 3.674 -17.422 M -16.131 19.242 C -4.965 8.128 5.564 -5.212 15.551 -16.219 M -16.591 18.869 C -5.919 5.551 4.164 -5.901 13.943 -16.634 M -6.086 18.854 C 2.611 10.187 8.59 5.197 20.854 -14.168 M -6.12 17.723 C 1.594 9.692 9.166 0.554 22.624 -13.034 M 5.881 16.555 C 12.436 12.322 17.889 1.601 23.382 -0.862 M 4.686 19.23 C 11.23 11.599 17.638 3.782 22.485 -1.939 M 15.682 18.888 C 18.863 15.892 20.552 13.898 21.279 11.534 M 15.686 18.884 C 18.276 16.296 19.837 14.949 22.504 11.161"/></g><g transform="matrix(1.0107 0 0 1.0263 209.6701 167.4821)"><path fill="none" stroke="#1d1f24" stroke-miterlimit="10" stroke-width="2.036925" d="M -16.197 -18.663 C -8.03 -16.661 7.005 -17.331 15.551 -16.763 M -17.905 -17.616 C -5.51 -17.78 7.767 -17.947 17.066 -17.643 M 17.561 -16.543 C 15.613 -10.202 15.404 -0.93 16.78 19.485 M 18.083 -16.737 C 18.57 -3.21 18.314 9.814 17.611 16.558 M 15.852 16.627 C 5.44 17.548 -5.939 18.37 -16.575 16.17 M 16.819 17.384 C 5.656 17.354 -5.919 17.065 -16.966 18.123 M -16.185 16.772 C -19.753 9.095 -18.071 0.44 -19.447 -16.154 M -16.703 17.525 C -16.981 8.162 -17.72 0.398 -17.975 -17.464"/></g><g transform="matrix(1 0 0 1 226.5585 174.3958)"><path fill="none" stroke="#1d1f24" stroke-miterlimit="10" stroke-width="2" d="M 0 -0.001 L 0 -0.001 M 0 -0.001 L 0 -0.001 M 0 -0.001 L 0 -0.001 M 0 -0.001 L 0 -0.001 M 0 -0.001 L 0 -0.001 M 0 -0.001 L 0 -0.001 M 0 -0.001 L 0 -0.001 M 0 -0.001 L 0 -0.001"/></g></g></g></g></svg>
</svg>